<svg width="34" height="27" viewBox="0 0 34 27" fill="none" xmlns="http://www.w3.org/2000/svg">
<g id="Clipboard and down arrow">
<g id="clipboard icon">
<g id="clipboard">
<g id="board">
<g id="board_2">
<g filter="url(#filter0_i_3_59)">
<rect x="0.1875" y="3.1405" width="19.2051" height="21.9836" rx="1" fill="url(#paint0_linear_3_59)"/>
</g>
<rect x="0.4375" y="3.3905" width="18.7051" height="21.4836" rx="0.75" stroke="#B6833A" stroke-width="0.5"/>
</g>
</g>
<g id="clip">
<path id="Subtract" fill-rule="evenodd" clip-rule="evenodd" d="M9.74976 0.140503C7.8847 0.140503 6.31999 1.42644 5.8939 3.16003H5.625C4.52043 3.16003 3.625 4.05546 3.625 5.16003V5.26892C3.625 6.37349 4.52043 7.26892 5.625 7.26892H13.875C14.9796 7.26892 15.875 6.37349 15.875 5.26892V5.16003C15.875 4.05546 14.9796 3.16003 13.875 3.16003H13.6056C13.1795 1.42644 11.6148 0.140503 9.74976 0.140503ZM9.74976 4.96814C10.6645 4.96814 11.406 4.22661 11.406 3.31189C11.406 2.39717 10.6645 1.65564 9.74976 1.65564C8.83503 1.65564 8.09351 2.39717 8.09351 3.31189C8.09351 4.22661 8.83503 4.96814 9.74976 4.96814Z" fill="url(#paint1_linear_3_59)"/>
<g id="Union" filter="url(#filter1_i_3_59)">
<path fill-rule="evenodd" clip-rule="evenodd" d="M5.8939 3.66003H6.28588L6.37945 3.27938C6.75189 1.76405 8.12023 0.640503 9.74976 0.640503C11.3793 0.640503 12.7476 1.76405 13.1201 3.27938L13.2136 3.66003H13.6056H14.375C14.9273 3.66003 15.375 4.10775 15.375 4.66003V5.76892C15.375 6.32121 14.9273 6.76892 14.375 6.76892H5.125C4.57272 6.76892 4.125 6.32121 4.125 5.76892V4.66003C4.125 4.10775 4.57272 3.66003 5.125 3.66003H5.8939ZM9.74976 0.140503C11.6148 0.140503 13.1795 1.42644 13.6056 3.16003H14.375C15.2034 3.16003 15.875 3.83161 15.875 4.66003V5.76892C15.875 6.59735 15.2034 7.26892 14.375 7.26892H5.125C4.29657 7.26892 3.625 6.59735 3.625 5.76892V4.66003C3.625 3.83161 4.29657 3.16003 5.125 3.16003H5.8939C6.31999 1.42644 7.8847 0.140503 9.74976 0.140503ZM8.41064 3.31628C8.41064 2.57658 9.01029 1.97693 9.75 1.97693C10.4897 1.97693 11.0894 2.57658 11.0894 3.31628C11.0894 4.05599 10.4897 4.65564 9.75 4.65564C9.01029 4.65564 8.41064 4.05599 8.41064 3.31628ZM9.75 1.47693C8.73415 1.47693 7.91064 2.30044 7.91064 3.31628C7.91064 4.33213 8.73415 5.15564 9.75 5.15564C10.7658 5.15564 11.5894 4.33213 11.5894 3.31628C11.5894 2.30044 10.7658 1.47693 9.75 1.47693Z" fill="#606060"/>
</g>
</g>
</g>
<g id="paper">
<g id="paper_2">
<g filter="url(#filter2_i_3_59)">
<path d="M20.75 26.3744H6.6875V9.68689H14.8438L20.75 15.6869V26.3744Z" fill="white"/>
</g>
<path d="M20.5 26.1244H6.9375V9.93689H14.739L20.5 15.7893V26.1244Z" stroke="#999999" stroke-width="0.5"/>
</g>
<g id="corner" filter="url(#filter3_d_3_59)">
<path d="M15.0859 10.6244L19.8359 15.4603H15.0859V10.6244Z" fill="white"/>
</g>
</g>
</g>
<g id="down">
<path d="M28.8843 12.5424L33.6626 12.6031L31.3038 15.9619L28.8843 12.5424Z" fill="#646464"/>
</g>
</g>
<defs>
<filter id="filter0_i_3_59" x="0.1875" y="3.1405" width="19.2051" height="21.9836" filterUnits="userSpaceOnUse" color-interpolation-filters="sRGB">
<feFlood flood-opacity="0" result="BackgroundImageFix"/>
<feBlend mode="normal" in="SourceGraphic" in2="BackgroundImageFix" result="shape"/>
<feColorMatrix in="SourceAlpha" type="matrix" values="0 0 0 0 0 0 0 0 0 0 0 0 0 0 0 0 0 0 127 0" result="hardAlpha"/>
<feMorphology radius="1" operator="erode" in="SourceAlpha" result="effect1_innerShadow_3_59"/>
<feOffset/>
<feGaussianBlur stdDeviation="0.5"/>
<feComposite in2="hardAlpha" operator="arithmetic" k2="-1" k3="1"/>
<feColorMatrix type="matrix" values="0 0 0 0 0.843137 0 0 0 0 0.67451 0 0 0 0 0.411765 0 0 0 1 0"/>
<feBlend mode="normal" in2="shape" result="effect1_innerShadow_3_59"/>
</filter>
<filter id="filter1_i_3_59" x="3.625" y="0.140503" width="12.25" height="7.12842" filterUnits="userSpaceOnUse" color-interpolation-filters="sRGB">
<feFlood flood-opacity="0" result="BackgroundImageFix"/>
<feBlend mode="normal" in="SourceGraphic" in2="BackgroundImageFix" result="shape"/>
<feColorMatrix in="SourceAlpha" type="matrix" values="0 0 0 0 0 0 0 0 0 0 0 0 0 0 0 0 0 0 127 0" result="hardAlpha"/>
<feOffset/>
<feGaussianBlur stdDeviation="0.5"/>
<feComposite in2="hardAlpha" operator="arithmetic" k2="-1" k3="1"/>
<feColorMatrix type="matrix" values="0 0 0 0 0.825 0 0 0 0 0.790134 0 0 0 0 0.790134 0 0 0 0.25 0"/>
<feBlend mode="normal" in2="shape" result="effect1_innerShadow_3_59"/>
</filter>
<filter id="filter2_i_3_59" x="6.6875" y="9.68689" width="14.0625" height="16.6875" filterUnits="userSpaceOnUse" color-interpolation-filters="sRGB">
<feFlood flood-opacity="0" result="BackgroundImageFix"/>
<feBlend mode="normal" in="SourceGraphic" in2="BackgroundImageFix" result="shape"/>
<feColorMatrix in="SourceAlpha" type="matrix" values="0 0 0 0 0 0 0 0 0 0 0 0 0 0 0 0 0 0 127 0" result="hardAlpha"/>
<feOffset/>
<feGaussianBlur stdDeviation="1"/>
<feComposite in2="hardAlpha" operator="arithmetic" k2="-1" k3="1"/>
<feColorMatrix type="matrix" values="0 0 0 0 0.85098 0 0 0 0 0.858824 0 0 0 0 0.858824 0 0 0 1 0"/>
<feBlend mode="normal" in2="shape" result="effect1_innerShadow_3_59"/>
</filter>
<filter id="filter3_d_3_59" x="10.0859" y="7.62439" width="12.75" height="12.8359" filterUnits="userSpaceOnUse" color-interpolation-filters="sRGB">
<feFlood flood-opacity="0" result="BackgroundImageFix"/>
<feColorMatrix in="SourceAlpha" type="matrix" values="0 0 0 0 0 0 0 0 0 0 0 0 0 0 0 0 0 0 127 0" result="hardAlpha"/>
<feOffset dx="-1" dy="1"/>
<feGaussianBlur stdDeviation="2"/>
<feColorMatrix type="matrix" values="0 0 0 0 0 0 0 0 0 0 0 0 0 0 0 0 0 0 0.3 0"/>
<feBlend mode="normal" in2="BackgroundImageFix" result="effect1_dropShadow_3_59"/>
<feBlend mode="normal" in="SourceGraphic" in2="effect1_dropShadow_3_59" result="shape"/>
</filter>
<linearGradient id="paint0_linear_3_59" x1="9.79004" y1="3.1405" x2="9.79004" y2="25.1241" gradientUnits="userSpaceOnUse">
<stop stop-color="#E4BA77"/>
<stop offset="1" stop-color="#DCA960"/>
</linearGradient>
<linearGradient id="paint1_linear_3_59" x1="9.75" y1="0.140503" x2="9.75" y2="7.26892" gradientUnits="userSpaceOnUse">
<stop stop-color="#949292"/>
<stop offset="1" stop-color="#777777"/>
</linearGradient>
</defs>
</svg>
