<svg width="16" height="14" viewBox="0 0 16 14" fill="none" xmlns="http://www.w3.org/2000/svg">
<g id="paintbrush icon">
<path id="paint" d="M7.37454 12.6127C7.35738 12.6127 7.3099 12.6054 7.22299 12.5706C7.14029 12.5374 7.03826 12.486 6.91783 12.4157C6.67718 12.2752 6.38089 12.0699 6.04716 11.8152C5.38067 11.3067 4.58304 10.6156 3.81389 9.89203C3.04475 9.16844 2.30913 8.41705 1.76562 7.78907C1.49343 7.47458 1.27329 7.19547 1.12168 6.96901C1.04579 6.85565 0.990169 6.76006 0.953945 6.6831C0.915437 6.6013 0.908517 6.56052 0.908197 6.5509C0.906579 6.50215 0.929562 6.42491 1.04092 6.31163C1.15148 6.19916 1.32295 6.07868 1.55172 5.94934C1.93827 5.7308 2.44043 5.51268 2.98448 5.27636C3.01865 5.26152 3.05299 5.2466 3.08747 5.23161C3.99711 6.71027 6.52231 9.41727 10.4882 10.2354C10.0702 10.6487 9.52976 11.1622 8.99687 11.6091C8.65147 11.8988 8.3147 12.1559 8.02001 12.3393C7.87271 12.4309 7.74056 12.5012 7.62663 12.5479C7.51004 12.5958 7.42731 12.6127 7.37454 12.6127Z" fill="url(#paint0_linear_3_97)" stroke="#225A96" stroke-width="0.5"/>
<g id="handle">
<g id="Union">
<mask id="path-2-inside-1_3_97" fill="white">
<path fill-rule="evenodd" clip-rule="evenodd" d="M13.6899 0.373338C13.2994 -0.0171867 12.6662 -0.0171867 12.2757 0.373338L9.71275 2.93625C9.68601 2.963 9.6611 2.99088 9.63801 3.01975L9.30176 2.67953C8.52531 1.89392 7.259 1.88649 6.47338 2.66295L5.0509 4.06885L10.9827 10.0706L12.4052 8.66473C13.1908 7.88828 13.1982 6.62197 12.4218 5.83635L12.0672 5.47756C12.1018 5.45102 12.1351 5.42191 12.1667 5.39023L14.7296 2.82732C15.1202 2.43679 15.1202 1.80363 14.7296 1.4131L13.6899 0.373338Z"/>
</mask>
<g filter="url(#filter0_i_3_97)">
<path fill-rule="evenodd" clip-rule="evenodd" d="M13.6899 0.373338C13.2994 -0.0171867 12.6662 -0.0171867 12.2757 0.373338L9.71275 2.93625C9.68601 2.963 9.6611 2.99088 9.63801 3.01975L9.30176 2.67953C8.52531 1.89392 7.259 1.88649 6.47338 2.66295L5.0509 4.06885L10.9827 10.0706L12.4052 8.66473C13.1908 7.88828 13.1982 6.62197 12.4218 5.83635L12.0672 5.47756C12.1018 5.45102 12.1351 5.42191 12.1667 5.39023L14.7296 2.82732C15.1202 2.43679 15.1202 1.80363 14.7296 1.4131L13.6899 0.373338Z" fill="#E1E1E1"/>
</g>
<path d="M12.2757 0.373338L12.6292 0.726891L12.6292 0.726891L12.2757 0.373338ZM13.6899 0.373338L14.0434 0.0197843L14.0434 0.0197839L13.6899 0.373338ZM9.71275 2.93625L9.3592 2.5827L9.71275 2.93625ZM9.63801 3.01975L9.28239 3.37122L9.6775 3.77099L10.0285 3.33201L9.63801 3.01975ZM9.30176 2.67953L8.94614 3.03101L9.30176 2.67953ZM6.47338 2.66295L6.12191 2.30733L6.47338 2.66295ZM5.0509 4.06885L4.69943 3.71323L4.34381 4.0647L4.69528 4.42032L5.0509 4.06885ZM10.9827 10.0706L10.6271 10.4221L10.9786 10.7777L11.3342 10.4263L10.9827 10.0706ZM12.4052 8.66473L12.0537 8.30911L12.4052 8.66473ZM12.4218 5.83635L12.7774 5.48488L12.4218 5.83635ZM12.0672 5.47756L11.7629 5.08077L11.313 5.42577L11.7116 5.82903L12.0672 5.47756ZM12.1667 5.39023L12.5203 5.74379L12.1667 5.39023ZM14.7296 2.82732L14.3761 2.47376L14.3761 2.47376L14.7296 2.82732ZM14.7296 1.4131L14.3761 1.76666L14.3761 1.76666L14.7296 1.4131ZM12.6292 0.726891C12.8245 0.531629 13.1411 0.531628 13.3363 0.726891L14.0434 0.0197839C13.4577 -0.566002 12.5079 -0.566003 11.9221 0.0197843L12.6292 0.726891ZM10.0663 3.28981L12.6292 0.726891L11.9221 0.0197841L9.3592 2.5827L10.0663 3.28981ZM10.0285 3.33201C10.0401 3.31755 10.0527 3.30346 10.0663 3.28981L9.3592 2.5827C9.31936 2.62254 9.28211 2.66422 9.24751 2.70749L10.0285 3.33201ZM8.94614 3.03101L9.28239 3.37122L9.99363 2.66827L9.65738 2.32806L8.94614 3.03101ZM6.82486 3.01857C7.41407 2.43623 8.3638 2.4418 8.94614 3.03101L9.65738 2.32806C8.68681 1.34604 7.10393 1.33676 6.12191 2.30733L6.82486 3.01857ZM5.40238 4.42447L6.82486 3.01857L6.12191 2.30733L4.69943 3.71323L5.40238 4.42447ZM11.3383 9.71916L5.40652 3.71737L4.69528 4.42032L10.6271 10.4221L11.3383 9.71916ZM12.0537 8.30911L10.6312 9.71501L11.3342 10.4263L12.7567 9.02035L12.0537 8.30911ZM12.0662 6.18783C12.6485 6.77704 12.6429 7.72677 12.0537 8.30911L12.7567 9.02035C13.7387 8.04978 13.748 6.4669 12.7774 5.48488L12.0662 6.18783ZM11.7116 5.82903L12.0662 6.18783L12.7774 5.48488L12.4228 5.12608L11.7116 5.82903ZM11.8132 5.03668C11.797 5.05284 11.7802 5.06751 11.7629 5.08077L12.3714 5.87434C12.4233 5.83452 12.4731 5.79098 12.5203 5.74379L11.8132 5.03668ZM14.3761 2.47376L11.8132 5.03668L12.5203 5.74379L15.0832 3.18087L14.3761 2.47376ZM14.3761 1.76666C14.5714 1.96192 14.5714 2.2785 14.3761 2.47376L15.0832 3.18087C15.669 2.59508 15.669 1.64534 15.0832 1.05955L14.3761 1.76666ZM13.3363 0.726891L14.3761 1.76666L15.0832 1.05955L14.0434 0.0197843L13.3363 0.726891Z" fill="#999999" mask="url(#path-2-inside-1_3_97)"/>
</g>
<g id="highlight" filter="url(#filter1_f_3_97)">
<rect x="8.76111" y="2.57874" width="5.71192" height="1.02579" transform="rotate(45 8.76111 2.57874)" fill="white"/>
</g>
<path id="main handle" d="M6.64889 2.84082C7.3363 2.16142 8.44432 2.16792 9.12372 2.85533L12.2437 6.01215C12.9231 6.69956 12.9166 7.80758 12.2292 8.48698L10.9846 9.71714L5.40422 4.07098L6.64889 2.84082Z" stroke="#999999" stroke-width="0.5"/>
</g>
<g id="overlay">
<path id="brush" d="M4.29659 4.6912C4.71526 4.48187 5.11625 4.25315 5.44607 3.99788L10.541 9.15288C10.8252 9.44041 10.8266 9.89398 10.5468 10.1726C10.5285 10.1909 10.5099 10.2094 10.491 10.2282C6.65687 9.5049 4.01534 6.76518 3.02139 5.27347C3.44282 5.09041 3.88412 4.89743 4.29659 4.6912Z" fill="url(#paint1_linear_3_97)" stroke="#948576" stroke-width="0.5"/>
<g id="highlight_2" style="mix-blend-mode:soft-light" filter="url(#filter2_f_3_97)">
<path d="M1.62717 6.52714C1.98037 6.15165 4.02368 5.52747 5.58686 4.27999L7.27436 6.0798C6.14924 6.96505 4.46174 7.96505 2.83674 8.46505C2.83674 8.46505 1.27397 6.90262 1.62717 6.52714Z" fill="white" fill-opacity="0.9"/>
</g>
<g id="highlight_3" style="mix-blend-mode:soft-light" filter="url(#filter3_f_3_97)">
<rect x="7.12085" y="6.06189" width="5.14897" height="0.644441" transform="rotate(45 7.12085 6.06189)" fill="white"/>
</g>
<path id="mainbrush" d="M11.1554 9.54059L11.1552 9.54043L11.1479 9.54827L11.1479 9.54834L11.1475 9.5487L11.1461 9.55025L11.1401 9.55664L11.1163 9.58206C11.0952 9.60444 11.0641 9.63743 11.0239 9.67951C10.9436 9.76368 10.8275 9.88415 10.6847 10.0288C10.3988 10.3184 10.0069 10.7037 9.58189 11.0885C9.15583 11.4741 8.70152 11.8545 8.29009 12.137C8.0843 12.2783 7.89434 12.3916 7.72782 12.4686C7.55726 12.5476 7.43119 12.5792 7.34749 12.5792C7.32478 12.5792 7.27331 12.5708 7.18546 12.536C7.10108 12.5026 6.9981 12.4509 6.87741 12.3803C6.63613 12.2391 6.34184 12.0327 6.01159 11.7768C5.35204 11.2659 4.5682 10.5728 3.8105 9.8508C3.05312 9.12914 2.32638 8.38297 1.78085 7.76752C1.50776 7.45943 1.2829 7.18726 1.1229 6.96916C1.04278 6.85995 0.981485 6.76774 0.939034 6.69372C0.917876 6.65682 0.902756 6.62678 0.89259 6.60323C0.887567 6.59159 0.884163 6.58247 0.881939 6.57569L0.879648 6.56805C0.879179 6.56626 0.879033 6.56546 0.879054 6.56557C0.867849 6.50542 0.893528 6.39206 1.12558 6.20835C1.3454 6.03433 1.68044 5.8547 2.09417 5.66344C2.39495 5.5244 2.72494 5.38464 3.06798 5.23935C3.19425 5.18587 3.32229 5.13164 3.4513 5.07642C3.92674 4.87291 4.41134 4.65755 4.84285 4.42543C5.10845 4.28255 5.38873 4.05134 5.59429 3.86624C5.69907 3.77189 5.78833 3.68593 5.85149 3.62348C5.88311 3.59221 5.90831 3.56672 5.92576 3.54887L5.94599 3.52805L5.95074 3.5231L6.64273 2.83918C7.33014 2.15978 8.43816 2.16627 9.11756 2.85369L12.2376 6.01051C12.917 6.69792 12.9105 7.80594 12.2231 8.48534L11.5485 9.152L11.1554 9.54059Z" stroke="#999999" stroke-opacity="0.4" stroke-width="0.5"/>
</g>
</g>
<defs>
<filter id="filter0_i_3_97" x="5.0509" y="0.0804443" width="9.97168" height="10.4902" filterUnits="userSpaceOnUse" color-interpolation-filters="sRGB">
<feFlood flood-opacity="0" result="BackgroundImageFix"/>
<feBlend mode="normal" in="SourceGraphic" in2="BackgroundImageFix" result="shape"/>
<feColorMatrix in="SourceAlpha" type="matrix" values="0 0 0 0 0 0 0 0 0 0 0 0 0 0 0 0 0 0 127 0" result="hardAlpha"/>
<feOffset dy="1.5"/>
<feGaussianBlur stdDeviation="0.25"/>
<feComposite in2="hardAlpha" operator="arithmetic" k2="-1" k3="1"/>
<feColorMatrix type="matrix" values="0 0 0 0 1 0 0 0 0 1 0 0 0 0 1 0 0 0 1 0"/>
<feBlend mode="normal" in2="shape" result="effect1_innerShadow_3_97"/>
</filter>
<filter id="filter1_f_3_97" x="7.53577" y="2.07874" width="5.76428" height="5.76428" filterUnits="userSpaceOnUse" color-interpolation-filters="sRGB">
<feFlood flood-opacity="0" result="BackgroundImageFix"/>
<feBlend mode="normal" in="SourceGraphic" in2="BackgroundImageFix" result="shape"/>
<feGaussianBlur stdDeviation="0.25" result="effect1_foregroundBlur_3_97"/>
</filter>
<filter id="filter2_f_3_97" x="0.575195" y="3.28" width="7.69922" height="6.18506" filterUnits="userSpaceOnUse" color-interpolation-filters="sRGB">
<feFlood flood-opacity="0" result="BackgroundImageFix"/>
<feBlend mode="normal" in="SourceGraphic" in2="BackgroundImageFix" result="shape"/>
<feGaussianBlur stdDeviation="0.5" result="effect1_foregroundBlur_3_97"/>
</filter>
<filter id="filter3_f_3_97" x="5.66516" y="5.06189" width="6.09656" height="6.09656" filterUnits="userSpaceOnUse" color-interpolation-filters="sRGB">
<feFlood flood-opacity="0" result="BackgroundImageFix"/>
<feBlend mode="normal" in="SourceGraphic" in2="BackgroundImageFix" result="shape"/>
<feGaussianBlur stdDeviation="0.5" result="effect1_foregroundBlur_3_97"/>
</filter>
<linearGradient id="paint0_linear_3_97" x1="5.10291" y1="8.39404" x2="3.77298" y2="10.2418" gradientUnits="userSpaceOnUse">
<stop stop-color="#518FD1"/>
<stop offset="1" stop-color="#4078B4"/>
</linearGradient>
<linearGradient id="paint1_linear_3_97" x1="8.11645" y1="6.34411" x2="5.77223" y2="8.66099" gradientUnits="userSpaceOnUse">
<stop stop-color="#AC9D8E"/>
</linearGradient>
</defs>
</svg>
