<svg width="14" height="15" viewBox="0 0 14 15" fill="none" xmlns="http://www.w3.org/2000/svg">
<g id="scissors icon">
<g id="blades">
<path id="Vector 4" d="M2.83984 3.06277V1.21634C2.83984 1.16995 2.89754 1.14857 2.92777 1.18376L10.4249 9.90991C10.4455 9.93392 10.4389 9.97083 10.4112 9.9862L9.37533 10.5617C9.35465 10.5732 9.32875 10.5686 9.31326 10.5507L2.85206 3.09552C2.84418 3.08643 2.83984 3.0748 2.83984 3.06277Z" fill="#222222" stroke="black" stroke-width="0.5"/>
<path id="Vector 5" d="M11.1758 3.06277L11.1758 1.21634C11.1758 1.16995 11.1181 1.14857 11.0879 1.18376L3.59074 9.90991C3.57011 9.93392 3.57671 9.97082 3.60438 9.9862L4.6403 10.5617C4.66098 10.5732 4.68687 10.5686 4.70236 10.5507L11.1636 3.09552C11.1714 3.08643 11.1758 3.0748 11.1758 3.06277Z" fill="#222222" stroke="black" stroke-width="0.5"/>
</g>
<g id="scissor handle">
<circle id="scissor handle_2" cx="3.46094" cy="12.1127" r="2.14453" stroke="#317DCE"/>
<circle id="scissor handle_3" cx="10.5547" cy="12.1127" r="2.14453" stroke="#317DCE"/>
</g>
</g>
</svg>
